<svg width="139" height="139" viewBox="0 0 139 139" fill="none" xmlns="http://www.w3.org/2000/svg">
<rect width="132.077" height="132.077" rx="32" transform="matrix(0.998605 0.0518525 -0.0528151 0.998655 6.97559 0)" fill="white"/>
<rect width="132" height="132" rx="32" transform="matrix(0.998605 0.0518525 -0.0528151 0.998655 6.97559 0)" fill="white" fill-opacity="0.01"/>
<g clip-path="url(#clip0_176_22)">
<path d="M29.4456 45.4306C29.4464 43.7681 30.7845 42.43 32.447 42.4292L38.1095 42.4264C41.497 42.4248 44.3959 44.8484 44.9943 48.1731L45.0441 48.423L68.4441 48.4117L68.438 61.1742L64.5649 57.3011C63.3904 56.1267 61.4904 56.1276 60.3274 57.3031C59.1643 58.4787 59.1509 60.3787 60.3253 61.5406L69.321 70.5363C70.4955 71.7107 72.3955 71.7098 73.5585 70.5342L82.5628 61.5299C83.7384 60.3543 83.7393 58.4543 82.5649 57.2924C81.3904 56.1305 79.4904 56.1189 78.3274 57.2944L74.4505 61.1713L74.4566 48.4088L96.6316 48.3981C99.1316 48.3969 101.018 50.6709 100.554 53.1337L96.6569 73.8731C95.9426 77.6609 92.6413 80.4 88.7913 80.4019L50.8413 80.4202L51.4771 83.9574C51.7389 85.3823 52.9759 86.4192 54.4259 86.4185L86.4259 86.403C88.0884 86.4022 89.4253 87.739 89.4245 89.4015C89.4237 91.064 88.0855 92.4022 86.423 92.403L54.4355 92.4185C50.0855 92.4206 46.362 89.3099 45.5891 85.0353L39.0937 49.2509C39.0065 48.776 38.5941 48.4262 38.1066 48.4264L32.4441 48.4291C30.7816 48.43 29.4448 47.0931 29.4456 45.4306ZM49.4182 102.421C49.4198 99.1084 52.1086 96.4196 55.4211 96.418C58.7336 96.4164 61.4198 99.1026 61.4182 102.415C61.4166 105.728 58.7279 108.416 55.4154 108.418C52.1029 108.42 49.4166 105.733 49.4182 102.421ZM77.4182 102.407C77.4198 99.0949 80.1086 96.4061 83.4211 96.4045C86.7336 96.4028 89.4198 99.089 89.4182 102.402C89.4166 105.714 86.7279 108.403 83.4154 108.404C80.1029 108.406 77.4166 105.72 77.4182 102.407Z" fill="#FF8C00"/>
<rect width="11" height="12" transform="matrix(0.713067 -0.701783 0.701096 0.712391 45.4456 45.6015)" fill="#FF8C00"/>
<rect width="9.0097" height="9.82876" transform="matrix(0.956229 -0.29354 0.292619 0.955947 64.4465 43.517)" fill="#FF8C00"/>
<rect width="11.4469" height="12.4875" transform="matrix(0.983301 0.181038 -0.181986 0.983476 58.7156 38.8793)" fill="#FF8C00"/>
<rect width="15.3176" height="16.7101" transform="matrix(0.968217 -0.251045 0.250111 0.967976 78.4485 39.7079)" fill="#FF8C00"/>
<path d="M74.1874 42.7184C73.5656 40.3774 74.575 38.0978 76.4419 37.6268C78.3089 37.1558 80.3264 38.6719 80.9482 41.0129L82.108 50.6525C82.3 53.3314 82.3967 54.6804 81.061 55.0173C79.7253 55.3542 78.6744 54.0663 77.4213 51.2909L74.1874 42.7184Z" fill="#FF8C00"/>
<path d="M71.4574 35.6066C72.6616 35.606 75.3106 36.0733 76.273 37.9473C76.273 37.9473 74.5702 37.4978 73.4635 37.5581C72.6654 37.6017 72.2528 38.014 71.4563 37.9496C70.6151 37.8816 69.4497 37.1696 69.4497 37.1696C69.4497 37.1696 70.2532 35.6072 71.4574 35.6066Z" fill="#FF8C00" stroke="#FF8C00"/>
<path d="M78.6212 33.9859C77.6329 34.6562 75.7338 36.515 76.044 38.5886C76.044 38.5886 77.1772 37.2713 78.1207 36.7044C78.801 36.2955 79.3815 36.404 79.9972 35.9075C80.6474 35.3832 81.1856 34.1499 81.1856 34.1499C81.1856 34.1499 79.6094 33.3156 78.6212 33.9859Z" fill="#FF8C00" stroke="#FF8C00"/>
<path d="M74.7976 34.1244C75.2708 34.5072 76.1542 35.5337 75.9024 36.5771C75.9024 36.5771 75.3846 35.8586 74.9296 35.5303C74.6016 35.2935 74.3009 35.3245 74.0097 35.0458C73.7022 34.7514 73.4837 34.1006 73.4837 34.1006C73.4837 34.1006 74.3245 33.7416 74.7976 34.1244Z" fill="#FF8C00" stroke="#FF8C00"/>
</g>
<path d="M3.4282 81.906C3.42873 80.8015 4.32459 79.9056 5.42916 79.9051L25.4292 79.8954C26.5337 79.8949 27.4287 80.7898 27.4282 81.8944C27.4277 82.999 26.5318 83.8949 25.4272 83.8954L5.42724 83.9051C4.32267 83.9056 3.42767 83.0106 3.4282 81.906Z" fill="#FF8C00"/>
<path d="M3.43971 57.906C3.44024 56.8015 4.3361 55.9056 5.44067 55.9051L25.4407 55.8954C26.5452 55.8949 27.4402 56.7898 27.4397 57.8944C27.4392 58.999 26.5433 59.8948 25.4388 59.8954L5.43875 59.9051C4.33418 59.9056 3.43918 59.0106 3.43971 57.906Z" fill="#FF8C00"/>
<path d="M11.434 69.9022C11.4345 68.7976 12.3303 67.9017 13.4349 67.9012L36.4349 67.8901C37.5395 67.8895 38.4345 68.7845 38.434 69.8891C38.4334 70.9937 37.5376 71.8895 36.433 71.8901L13.433 71.9012C12.3284 71.9017 11.4334 71.0067 11.434 69.9022Z" fill="#FF8C00"/>
<defs>
<clipPath id="clip0_176_22">
<rect width="80" height="80" fill="white" transform="matrix(1 -0.000484157 -0.00047974 1 29.4534 29.3934)"/>
</clipPath>
</defs>
</svg>
